<svg xmlns="http://www.w3.org/2000/svg" width="10" height="10" viewBox="-5 -5 27.5 27.5">
  <rect x=".75" y=".75" width="16" height="16" rx="2" fill="none" stroke="#e2e8f0" stroke-width="1"/>
  <path fill="#bf9aff" d="M7.66 11.27c.24.53.63.81 1.14.89s1.06-.05 1.37-.49c.36-.52.13-1.24-.42-1.55-.44-.25-.92-.24-1.47-.16v-1.09s2.51-3.25 2.51-3.25h1.76s-2.48 3.2-2.48 3.2c.82.25 1.45.85 1.69 1.54.32.94.12 1.87-.57 2.51-1.29 1.2-3.37 1.09-4.54-.27l1.01-1.34Z"/>
  <polygon fill="#fcfbfe" points="8.69 6.86 7.13 6.88 7.16 10.41 5.89 12.01 5.88 3.74 7.15 3.74 7.16 5.61 9.6 5.63 8.69 6.86"/>
</svg>
